<svg width="49" height="49" viewBox="0 0 49 49" fill="none" xmlns="http://www.w3.org/2000/svg">
<g clip-path="url(#clip0)">
<path d="M47.8417 27.8742C47.3407 27.749 46.8398 27.8742 46.4014 28.1873C44.7733 29.565 42.8947 30.6921 40.8282 31.4436C38.887 32.195 36.7579 32.5707 34.5036 32.5707C29.4314 32.5707 24.7975 30.5043 21.4787 27.1854C18.1598 23.8665 16.0933 19.2327 16.0933 14.1604C16.0933 12.0314 16.4691 9.9649 17.0953 8.0863C17.7841 6.08246 18.786 4.26648 20.101 2.70098C20.6646 2.01216 20.5394 1.01024 19.8505 0.446664C19.4122 0.133564 18.9112 0.00832368 18.4103 0.133564C13.0876 1.57382 8.4537 4.76744 5.13484 9.02561C1.94122 13.2211 0 18.4186 0 24.117C0 30.9426 2.75528 37.142 7.26392 41.6506C11.7726 46.1593 17.9719 48.9145 24.7975 48.9145C30.5586 48.9145 35.8813 46.9107 40.1394 43.5918C44.4602 40.2104 47.5912 35.3886 48.9062 29.8781C49.2193 28.9388 48.7184 28.0621 47.8417 27.8742ZM38.2608 40.9618C34.6289 43.8423 29.995 45.5957 24.9228 45.5957C18.9739 45.5957 13.5885 43.1535 9.7061 39.2711C5.82366 35.3886 3.38148 30.0033 3.38148 24.0544C3.38148 19.1074 5.0096 14.5988 7.8275 10.9668C9.76872 8.46202 12.2109 6.39556 15.0288 4.9553C14.7157 5.64412 14.4026 6.33294 14.1521 7.08438C13.3381 9.33871 12.9623 11.7183 12.9623 14.2231C12.9623 20.172 15.4045 25.6199 19.287 29.5023C23.1694 33.3848 28.6173 35.827 34.5662 35.827C37.1963 35.827 39.7011 35.3886 42.018 34.5119C42.8321 34.1988 43.6461 33.8857 44.3976 33.51C42.8947 36.3905 40.8282 38.958 38.2608 40.9618Z" fill="#007871"/>
</g>
<defs>
<clipPath id="clip0">
<rect width="49" height="49" fill="white"/>
</clipPath>
</defs>
</svg>
