<svg width="52" height="52" viewBox="0 0 52 52" fill="none" xmlns="http://www.w3.org/2000/svg">
<path d="M35.2169 16.7831C32.8782 14.4444 29.5767 12.9312 25.9999 12.9312C22.4232 12.9312 19.1216 14.3757 16.783 16.7831C14.4444 19.1217 12.9312 22.4233 12.9312 26C12.9312 29.5767 14.4444 32.8783 16.783 35.2169C19.1216 37.5556 22.4232 39.0688 25.9999 39.0688C29.5767 39.0688 32.8782 37.6243 35.2169 35.2169C37.5555 32.8783 39.0687 29.5767 39.0687 26C39.0687 22.4233 37.6243 19.1217 35.2169 16.7831ZM32.7407 32.7407C31.0211 34.4603 28.6137 35.4921 25.9999 35.4921C23.3862 35.4921 20.9788 34.4603 19.2592 32.7407C17.5396 31.0212 16.5079 28.6138 16.5079 26C16.5079 23.3862 17.5396 20.9788 19.2592 19.2593C20.9788 17.5397 23.3862 16.5079 25.9999 16.5079C28.6137 16.5079 31.0211 17.5397 32.7407 19.2593C34.4603 20.9788 35.492 23.3862 35.492 26C35.492 28.6138 34.4603 31.0212 32.7407 32.7407Z" fill="#2EB7E2"/>
<path d="M50.2116 24.2116H44.9153C43.9524 24.2116 43.127 25.037 43.127 26C43.127 26.963 43.9524 27.7884 44.9153 27.7884H50.2116C51.1746 27.7884 52 26.963 52 26C52 25.037 51.1746 24.2116 50.2116 24.2116Z" fill="#2EB7E2"/>
<path d="M26 43.127C25.0371 43.127 24.2117 43.9524 24.2117 44.9153V50.2116C24.2117 51.1746 25.0371 52 26 52C26.963 52 27.7884 51.1746 27.7884 50.2116V44.9153C27.7884 43.9524 26.963 43.127 26 43.127Z" fill="#2EB7E2"/>
<path d="M44.365 41.8889L40.5819 38.1058C39.9629 37.418 38.7935 37.418 38.1057 38.1058C37.4179 38.7937 37.4179 39.8942 38.1057 40.582L41.8888 44.3651C42.5766 45.0529 43.6771 45.0529 44.365 44.3651C45.0528 43.6773 45.0528 42.5767 44.365 41.8889Z" fill="#2EB7E2"/>
<path d="M26 0C25.0371 0 24.2117 0.825396 24.2117 1.78836V7.08465C24.2117 8.04762 25.0371 8.87301 26 8.87301C26.963 8.87301 27.7884 8.04762 27.7884 7.08465V1.78836C27.7884 0.825396 26.963 0 26 0Z" fill="#2EB7E2"/>
<path d="M44.4338 7.63492C43.746 6.94709 42.6455 6.94709 41.9576 7.63492L38.1746 11.418C37.4867 12.1058 37.4867 13.2064 38.1746 13.8942C38.7936 14.582 39.9629 14.582 40.6508 13.8942L44.4338 10.1111C45.1216 9.42328 45.1216 8.32275 44.4338 7.63492Z" fill="#2EB7E2"/>
<path d="M7.08465 24.2116H1.78836C0.825396 24.2116 0 25.037 0 26C0 26.963 0.756613 27.7884 1.78836 27.7884H7.08465C8.04762 27.7884 8.87301 26.963 8.87301 26C8.87301 25.037 8.04762 24.2116 7.08465 24.2116Z" fill="#2EB7E2"/>
<path d="M13.8254 38.1058C13.2064 37.418 12.0371 37.418 11.3492 38.1058L7.56617 41.8889C6.87834 42.5767 6.87834 43.6773 7.56617 44.3651C8.254 45.0529 9.35453 45.0529 10.0424 44.3651L13.8254 40.582C14.5133 39.8942 14.5133 38.7937 13.8254 38.1058Z" fill="#2EB7E2"/>
<path d="M13.8254 11.418L10.0424 7.63492C9.35453 6.94709 8.254 6.94709 7.56617 7.63492C6.87834 8.32275 6.87834 9.42328 7.56617 10.1111L11.3492 13.8942C12.0371 14.582 13.1376 14.582 13.8254 13.8942C14.5133 13.2064 14.5133 12.1058 13.8254 11.418Z" fill="#2EB7E2"/>
</svg>
